ISO-10303-21;
HEADER;
/* Generated by software containing ST-Developer
 * from STEP Tools, Inc. (www.steptools.com) 
 */

FILE_DESCRIPTION(
/* description */ (''),
/* implementation_level */ '2;1');

FILE_NAME(
/* name */ 'ATF-26884.step',
/* time_stamp */ '2026-08-09T19:03:29+03:00',
/* author */ (''),
/* organization */ (''),
/* preprocessor_version */ 'ST-DEVELOPER v20.1',
/* originating_system */ 'Autodesk Translation Framework v15.8.0.0',
/* authorisation */ '');

FILE_SCHEMA (('AUTOMOTIVE_DESIGN { 1 0 10303 214 3 1 1 }'));
ENDSEC;

DATA;
#10=MECHANICAL_DESIGN_GEOMETRIC_PRESENTATION_REPRESENTATION('',(#13),#883);
#11=SHAPE_REPRESENTATION_RELATIONSHIP('SRR','None',#890,#12);
#12=ADVANCED_BREP_SHAPE_REPRESENTATION('',(#14),#882);
#13=STYLED_ITEM('',(#899),#14);
#14=MANIFOLD_SOLID_BREP('Body1',#521);
#15=FACE_BOUND('',#81,.T.);
#16=FACE_BOUND('',#82,.T.);
#17=FACE_BOUND('',#83,.T.);
#18=FACE_BOUND('',#87,.T.);
#19=TOROIDAL_SURFACE('',#539,0.825,0.25);
#20=TOROIDAL_SURFACE('',#556,0.825,0.25);
#21=PLANE('',#538);
#22=PLANE('',#555);
#23=PLANE('',#559);
#24=PLANE('',#560);
#25=PLANE('',#561);
#26=PLANE('',#562);
#27=PLANE('',#563);
#28=PLANE('',#564);
#29=PLANE('',#565);
#30=PLANE('',#566);
#31=PLANE('',#567);
#32=PLANE('',#568);
#33=PLANE('',#569);
#34=PLANE('',#570);
#35=PLANE('',#571);
#36=PLANE('',#572);
#37=PLANE('',#573);
#38=PLANE('',#574);
#39=PLANE('',#575);
#40=PLANE('',#576);
#41=PLANE('',#577);
#42=PLANE('',#578);
#43=PLANE('',#579);
#44=PLANE('',#580);
#45=PLANE('',#581);
#46=PLANE('',#582);
#47=FACE_OUTER_BOUND('',#77,.T.);
#48=FACE_OUTER_BOUND('',#78,.T.);
#49=FACE_OUTER_BOUND('',#79,.T.);
#50=FACE_OUTER_BOUND('',#80,.T.);
#51=FACE_OUTER_BOUND('',#84,.T.);
#52=FACE_OUTER_BOUND('',#85,.T.);
#53=FACE_OUTER_BOUND('',#86,.T.);
#54=FACE_OUTER_BOUND('',#88,.T.);
#55=FACE_OUTER_BOUND('',#89,.T.);
#56=FACE_OUTER_BOUND('',#90,.T.);
#57=FACE_OUTER_BOUND('',#91,.T.);
#58=FACE_OUTER_BOUND('',#92,.T.);
#59=FACE_OUTER_BOUND('',#93,.T.);
#60=FACE_OUTER_BOUND('',#94,.T.);
#61=FACE_OUTER_BOUND('',#95,.T.);
#62=FACE_OUTER_BOUND('',#96,.T.);
#63=FACE_OUTER_BOUND('',#97,.T.);
#64=FACE_OUTER_BOUND('',#98,.T.);
#65=FACE_OUTER_BOUND('',#99,.T.);
#66=FACE_OUTER_BOUND('',#100,.T.);
#67=FACE_OUTER_BOUND('',#101,.T.);
#68=FACE_OUTER_BOUND('',#102,.T.);
#69=FACE_OUTER_BOUND('',#103,.T.);
#70=FACE_OUTER_BOUND('',#104,.T.);
#71=FACE_OUTER_BOUND('',#105,.T.);
#72=FACE_OUTER_BOUND('',#106,.T.);
#73=FACE_OUTER_BOUND('',#107,.T.);
#74=FACE_OUTER_BOUND('',#108,.T.);
#75=FACE_OUTER_BOUND('',#109,.T.);
#76=FACE_OUTER_BOUND('',#110,.T.);
#77=EDGE_LOOP('',(#349,#350,#351,#352));
#78=EDGE_LOOP('',(#353));
#79=EDGE_LOOP('',(#354,#355,#356,#357));
#80=EDGE_LOOP('',(#358,#359,#360,#361,#362,#363,#364,#365,#366,#367,#368,
#369));
#81=EDGE_LOOP('',(#370,#371,#372,#373));
#82=EDGE_LOOP('',(#374,#375,#376,#377));
#83=EDGE_LOOP('',(#378,#379,#380,#381));
#84=EDGE_LOOP('',(#382));
#85=EDGE_LOOP('',(#383,#384,#385,#386));
#86=EDGE_LOOP('',(#387));
#87=EDGE_LOOP('',(#388));
#88=EDGE_LOOP('',(#389,#390,#391,#392,#393));
#89=EDGE_LOOP('',(#394,#395,#396,#397,#398));
#90=EDGE_LOOP('',(#399,#400,#401,#402,#403));
#91=EDGE_LOOP('',(#404,#405,#406,#407,#408));
#92=EDGE_LOOP('',(#409,#410,#411,#412,#413));
#93=EDGE_LOOP('',(#414,#415,#416,#417,#418));
#94=EDGE_LOOP('',(#419,#420,#421,#422));
#95=EDGE_LOOP('',(#423,#424,#425,#426));
#96=EDGE_LOOP('',(#427,#428,#429,#430));
#97=EDGE_LOOP('',(#431,#432,#433,#434));
#98=EDGE_LOOP('',(#435,#436,#437,#438));
#99=EDGE_LOOP('',(#439,#440,#441,#442));
#100=EDGE_LOOP('',(#443,#444,#445,#446));
#101=EDGE_LOOP('',(#447,#448,#449,#450));
#102=EDGE_LOOP('',(#451,#452,#453,#454));
#103=EDGE_LOOP('',(#455,#456,#457,#458));
#104=EDGE_LOOP('',(#459,#460,#461,#462));
#105=EDGE_LOOP('',(#463,#464,#465,#466));
#106=EDGE_LOOP('',(#467,#468,#469,#470));
#107=EDGE_LOOP('',(#471,#472,#473,#474));
#108=EDGE_LOOP('',(#475,#476,#477,#478));
#109=EDGE_LOOP('',(#479,#480,#481,#482,#483));
#110=EDGE_LOOP('',(#484,#485,#486,#487,#488));
#111=LINE('',#738,#163);
#112=LINE('',#751,#164);
#113=LINE('',#755,#165);
#114=LINE('',#758,#166);
#115=LINE('',#762,#167);
#116=LINE('',#766,#168);
#117=LINE('',#770,#169);
#118=LINE('',#774,#170);
#119=LINE('',#778,#171);
#120=LINE('',#784,#172);
#121=LINE('',#787,#173);
#122=LINE('',#796,#174);
#123=LINE('',#798,#175);
#124=LINE('',#800,#176);
#125=LINE('',#801,#177);
#126=LINE('',#804,#178);
#127=LINE('',#806,#179);
#128=LINE('',#808,#180);
#129=LINE('',#809,#181);
#130=LINE('',#812,#182);
#131=LINE('',#814,#183);
#132=LINE('',#816,#184);
#133=LINE('',#817,#185);
#134=LINE('',#820,#186);
#135=LINE('',#822,#187);
#136=LINE('',#824,#188);
#137=LINE('',#825,#189);
#138=LINE('',#828,#190);
#139=LINE('',#830,#191);
#140=LINE('',#832,#192);
#141=LINE('',#833,#193);
#142=LINE('',#836,#194);
#143=LINE('',#838,#195);
#144=LINE('',#840,#196);
#145=LINE('',#841,#197);
#146=LINE('',#843,#198);
#147=LINE('',#845,#199);
#148=LINE('',#847,#200);
#149=LINE('',#850,#201);
#150=LINE('',#852,#202);
#151=LINE('',#854,#203);
#152=LINE('',#858,#204);
#153=LINE('',#860,#205);
#154=LINE('',#861,#206);
#155=LINE('',#864,#207);
#156=LINE('',#866,#208);
#157=LINE('',#867,#209);
#158=LINE('',#869,#210);
#159=LINE('',#870,#211);
#160=LINE('',#872,#212);
#161=LINE('',#874,#213);
#162=LINE('',#876,#214);
#163=VECTOR('',#589,0.125);
#164=VECTOR('',#606,1.075);
#165=VECTOR('',#609,10.);
#166=VECTOR('',#612,1.075);
#167=VECTOR('',#615,10.);
#168=VECTOR('',#618,10.);
#169=VECTOR('',#621,10.);
#170=VECTOR('',#624,10.);
#171=VECTOR('',#627,10.);
#172=VECTOR('',#632,10.);
#173=VECTOR('',#635,10.);
#174=VECTOR('',#648,10.);
#175=VECTOR('',#649,10.);
#176=VECTOR('',#650,10.);
#177=VECTOR('',#651,10.);
#178=VECTOR('',#654,10.);
#179=VECTOR('',#655,10.);
#180=VECTOR('',#656,10.);
#181=VECTOR('',#657,10.);
#182=VECTOR('',#660,10.);
#183=VECTOR('',#661,10.);
#184=VECTOR('',#662,10.);
#185=VECTOR('',#663,10.);
#186=VECTOR('',#666,10.);
#187=VECTOR('',#667,10.);
#188=VECTOR('',#668,10.);
#189=VECTOR('',#669,10.);
#190=VECTOR('',#672,10.);
#191=VECTOR('',#673,10.);
#192=VECTOR('',#674,10.);
#193=VECTOR('',#675,10.);
#194=VECTOR('',#678,10.);
#195=VECTOR('',#679,10.);
#196=VECTOR('',#680,10.);
#197=VECTOR('',#681,10.);
#198=VECTOR('',#684,10.);
#199=VECTOR('',#687,10.);
#200=VECTOR('',#690,10.);
#201=VECTOR('',#695,10.);
#202=VECTOR('',#698,10.);
#203=VECTOR('',#701,10.);
#204=VECTOR('',#706,10.);
#205=VECTOR('',#707,10.);
#206=VECTOR('',#708,10.);
#207=VECTOR('',#711,10.);
#208=VECTOR('',#712,10.);
#209=VECTOR('',#713,10.);
#210=VECTOR('',#716,10.);
#211=VECTOR('',#717,10.);
#212=VECTOR('',#720,10.);
#213=VECTOR('',#723,10.);
#214=VECTOR('',#726,10.);
#215=CIRCLE('',#536,0.125);
#216=CIRCLE('',#537,0.125);
#217=CIRCLE('',#540,1.075);
#218=CIRCLE('',#541,0.25);
#219=CIRCLE('',#542,0.825);
#220=CIRCLE('',#544,1.075);
#221=CIRCLE('',#545,1.075);
#222=CIRCLE('',#546,1.075);
#223=CIRCLE('',#547,1.075);
#224=CIRCLE('',#548,1.075);
#225=CIRCLE('',#549,1.075);
#226=CIRCLE('',#550,1.075);
#227=CIRCLE('',#551,1.075);
#228=CIRCLE('',#552,1.075);
#229=CIRCLE('',#553,1.075);
#230=CIRCLE('',#554,1.075);
#231=CIRCLE('',#557,0.825);
#232=CIRCLE('',#558,0.25);
#233=VERTEX_POINT('',#735);
#234=VERTEX_POINT('',#737);
#235=VERTEX_POINT('',#742);
#236=VERTEX_POINT('',#744);
#237=VERTEX_POINT('',#748);
#238=VERTEX_POINT('',#750);
#239=VERTEX_POINT('',#752);
#240=VERTEX_POINT('',#754);
#241=VERTEX_POINT('',#756);
#242=VERTEX_POINT('',#759);
#243=VERTEX_POINT('',#761);
#244=VERTEX_POINT('',#764);
#245=VERTEX_POINT('',#765);
#246=VERTEX_POINT('',#767);
#247=VERTEX_POINT('',#769);
#248=VERTEX_POINT('',#772);
#249=VERTEX_POINT('',#773);
#250=VERTEX_POINT('',#775);
#251=VERTEX_POINT('',#777);
#252=VERTEX_POINT('',#780);
#253=VERTEX_POINT('',#781);
#254=VERTEX_POINT('',#783);
#255=VERTEX_POINT('',#785);
#256=VERTEX_POINT('',#790);
#257=VERTEX_POINT('',#795);
#258=VERTEX_POINT('',#797);
#259=VERTEX_POINT('',#799);
#260=VERTEX_POINT('',#803);
#261=VERTEX_POINT('',#805);
#262=VERTEX_POINT('',#807);
#263=VERTEX_POINT('',#811);
#264=VERTEX_POINT('',#813);
#265=VERTEX_POINT('',#815);
#266=VERTEX_POINT('',#819);
#267=VERTEX_POINT('',#821);
#268=VERTEX_POINT('',#823);
#269=VERTEX_POINT('',#827);
#270=VERTEX_POINT('',#829);
#271=VERTEX_POINT('',#831);
#272=VERTEX_POINT('',#835);
#273=VERTEX_POINT('',#837);
#274=VERTEX_POINT('',#839);
#275=VERTEX_POINT('',#857);
#276=VERTEX_POINT('',#859);
#277=VERTEX_POINT('',#863);
#278=VERTEX_POINT('',#865);
#279=EDGE_CURVE('',#233,#233,#215,.T.);
#280=EDGE_CURVE('',#233,#234,#111,.T.);
#281=EDGE_CURVE('',#234,#234,#216,.T.);
#282=EDGE_CURVE('',#235,#235,#217,.T.);
#283=EDGE_CURVE('',#235,#236,#218,.T.);
#284=EDGE_CURVE('',#236,#236,#219,.T.);
#285=EDGE_CURVE('',#237,#237,#220,.T.);
#286=EDGE_CURVE('',#237,#238,#112,.T.);
#287=EDGE_CURVE('',#239,#238,#221,.T.);
#288=EDGE_CURVE('',#240,#239,#113,.T.);
#289=EDGE_CURVE('',#241,#240,#222,.T.);
#290=EDGE_CURVE('',#241,#235,#114,.T.);
#291=EDGE_CURVE('',#242,#241,#223,.T.);
#292=EDGE_CURVE('',#242,#243,#115,.T.);
#293=EDGE_CURVE('',#238,#243,#224,.T.);
#294=EDGE_CURVE('',#244,#245,#116,.T.);
#295=EDGE_CURVE('',#246,#244,#225,.T.);
#296=EDGE_CURVE('',#246,#247,#117,.T.);
#297=EDGE_CURVE('',#245,#247,#226,.T.);
#298=EDGE_CURVE('',#248,#249,#118,.T.);
#299=EDGE_CURVE('',#250,#248,#227,.T.);
#300=EDGE_CURVE('',#250,#251,#119,.T.);
#301=EDGE_CURVE('',#249,#251,#228,.T.);
#302=EDGE_CURVE('',#252,#253,#229,.T.);
#303=EDGE_CURVE('',#254,#252,#120,.T.);
#304=EDGE_CURVE('',#255,#254,#230,.T.);
#305=EDGE_CURVE('',#255,#253,#121,.T.);
#306=EDGE_CURVE('',#256,#256,#231,.T.);
#307=EDGE_CURVE('',#256,#237,#232,.T.);
#308=EDGE_CURVE('',#251,#257,#122,.T.);
#309=EDGE_CURVE('',#257,#258,#123,.T.);
#310=EDGE_CURVE('',#258,#259,#124,.T.);
#311=EDGE_CURVE('',#259,#249,#125,.T.);
#312=EDGE_CURVE('',#247,#260,#126,.T.);
#313=EDGE_CURVE('',#260,#261,#127,.T.);
#314=EDGE_CURVE('',#261,#262,#128,.T.);
#315=EDGE_CURVE('',#262,#245,#129,.T.);
#316=EDGE_CURVE('',#253,#263,#130,.T.);
#317=EDGE_CURVE('',#263,#264,#131,.T.);
#318=EDGE_CURVE('',#264,#265,#132,.T.);
#319=EDGE_CURVE('',#265,#252,#133,.T.);
#320=EDGE_CURVE('',#248,#266,#134,.T.);
#321=EDGE_CURVE('',#266,#267,#135,.T.);
#322=EDGE_CURVE('',#267,#268,#136,.T.);
#323=EDGE_CURVE('',#268,#250,#137,.T.);
#324=EDGE_CURVE('',#244,#269,#138,.T.);
#325=EDGE_CURVE('',#270,#269,#139,.T.);
#326=EDGE_CURVE('',#271,#270,#140,.T.);
#327=EDGE_CURVE('',#271,#246,#141,.T.);
#328=EDGE_CURVE('',#254,#272,#142,.T.);
#329=EDGE_CURVE('',#272,#273,#143,.T.);
#330=EDGE_CURVE('',#273,#274,#144,.T.);
#331=EDGE_CURVE('',#274,#255,#145,.T.);
#332=EDGE_CURVE('',#266,#259,#146,.T.);
#333=EDGE_CURVE('',#267,#258,#147,.T.);
#334=EDGE_CURVE('',#268,#257,#148,.T.);
#335=EDGE_CURVE('',#272,#265,#149,.T.);
#336=EDGE_CURVE('',#273,#264,#150,.T.);
#337=EDGE_CURVE('',#274,#263,#151,.T.);
#338=EDGE_CURVE('',#240,#275,#152,.T.);
#339=EDGE_CURVE('',#276,#239,#153,.T.);
#340=EDGE_CURVE('',#275,#276,#154,.T.);
#341=EDGE_CURVE('',#277,#275,#155,.T.);
#342=EDGE_CURVE('',#278,#276,#156,.T.);
#343=EDGE_CURVE('',#277,#278,#157,.T.);
#344=EDGE_CURVE('',#277,#242,#158,.T.);
#345=EDGE_CURVE('',#243,#278,#159,.T.);
#346=EDGE_CURVE('',#269,#262,#160,.T.);
#347=EDGE_CURVE('',#270,#261,#161,.T.);
#348=EDGE_CURVE('',#271,#260,#162,.T.);
#349=ORIENTED_EDGE('',*,*,#279,.F.);
#350=ORIENTED_EDGE('',*,*,#280,.T.);
#351=ORIENTED_EDGE('',*,*,#281,.T.);
#352=ORIENTED_EDGE('',*,*,#280,.F.);
#353=ORIENTED_EDGE('',*,*,#281,.F.);
#354=ORIENTED_EDGE('',*,*,#282,.T.);
#355=ORIENTED_EDGE('',*,*,#283,.T.);
#356=ORIENTED_EDGE('',*,*,#284,.T.);
#357=ORIENTED_EDGE('',*,*,#283,.F.);
#358=ORIENTED_EDGE('',*,*,#285,.F.);
#359=ORIENTED_EDGE('',*,*,#286,.T.);
#360=ORIENTED_EDGE('',*,*,#287,.F.);
#361=ORIENTED_EDGE('',*,*,#288,.F.);
#362=ORIENTED_EDGE('',*,*,#289,.F.);
#363=ORIENTED_EDGE('',*,*,#290,.T.);
#364=ORIENTED_EDGE('',*,*,#282,.F.);
#365=ORIENTED_EDGE('',*,*,#290,.F.);
#366=ORIENTED_EDGE('',*,*,#291,.F.);
#367=ORIENTED_EDGE('',*,*,#292,.T.);
#368=ORIENTED_EDGE('',*,*,#293,.F.);
#369=ORIENTED_EDGE('',*,*,#286,.F.);
#370=ORIENTED_EDGE('',*,*,#294,.F.);
#371=ORIENTED_EDGE('',*,*,#295,.F.);
#372=ORIENTED_EDGE('',*,*,#296,.T.);
#373=ORIENTED_EDGE('',*,*,#297,.F.);
#374=ORIENTED_EDGE('',*,*,#298,.F.);
#375=ORIENTED_EDGE('',*,*,#299,.F.);
#376=ORIENTED_EDGE('',*,*,#300,.T.);
#377=ORIENTED_EDGE('',*,*,#301,.F.);
#378=ORIENTED_EDGE('',*,*,#302,.F.);
#379=ORIENTED_EDGE('',*,*,#303,.F.);
#380=ORIENTED_EDGE('',*,*,#304,.F.);
#381=ORIENTED_EDGE('',*,*,#305,.T.);
#382=ORIENTED_EDGE('',*,*,#284,.F.);
#383=ORIENTED_EDGE('',*,*,#306,.T.);
#384=ORIENTED_EDGE('',*,*,#307,.T.);
#385=ORIENTED_EDGE('',*,*,#285,.T.);
#386=ORIENTED_EDGE('',*,*,#307,.F.);
#387=ORIENTED_EDGE('',*,*,#306,.F.);
#388=ORIENTED_EDGE('',*,*,#279,.T.);
#389=ORIENTED_EDGE('',*,*,#301,.T.);
#390=ORIENTED_EDGE('',*,*,#308,.T.);
#391=ORIENTED_EDGE('',*,*,#309,.T.);
#392=ORIENTED_EDGE('',*,*,#310,.T.);
#393=ORIENTED_EDGE('',*,*,#311,.T.);
#394=ORIENTED_EDGE('',*,*,#297,.T.);
#395=ORIENTED_EDGE('',*,*,#312,.T.);
#396=ORIENTED_EDGE('',*,*,#313,.T.);
#397=ORIENTED_EDGE('',*,*,#314,.T.);
#398=ORIENTED_EDGE('',*,*,#315,.T.);
#399=ORIENTED_EDGE('',*,*,#302,.T.);
#400=ORIENTED_EDGE('',*,*,#316,.T.);
#401=ORIENTED_EDGE('',*,*,#317,.T.);
#402=ORIENTED_EDGE('',*,*,#318,.T.);
#403=ORIENTED_EDGE('',*,*,#319,.T.);
#404=ORIENTED_EDGE('',*,*,#299,.T.);
#405=ORIENTED_EDGE('',*,*,#320,.T.);
#406=ORIENTED_EDGE('',*,*,#321,.T.);
#407=ORIENTED_EDGE('',*,*,#322,.T.);
#408=ORIENTED_EDGE('',*,*,#323,.T.);
#409=ORIENTED_EDGE('',*,*,#295,.T.);
#410=ORIENTED_EDGE('',*,*,#324,.T.);
#411=ORIENTED_EDGE('',*,*,#325,.F.);
#412=ORIENTED_EDGE('',*,*,#326,.F.);
#413=ORIENTED_EDGE('',*,*,#327,.T.);
#414=ORIENTED_EDGE('',*,*,#304,.T.);
#415=ORIENTED_EDGE('',*,*,#328,.T.);
#416=ORIENTED_EDGE('',*,*,#329,.T.);
#417=ORIENTED_EDGE('',*,*,#330,.T.);
#418=ORIENTED_EDGE('',*,*,#331,.T.);
#419=ORIENTED_EDGE('',*,*,#320,.F.);
#420=ORIENTED_EDGE('',*,*,#298,.T.);
#421=ORIENTED_EDGE('',*,*,#311,.F.);
#422=ORIENTED_EDGE('',*,*,#332,.F.);
#423=ORIENTED_EDGE('',*,*,#321,.F.);
#424=ORIENTED_EDGE('',*,*,#332,.T.);
#425=ORIENTED_EDGE('',*,*,#310,.F.);
#426=ORIENTED_EDGE('',*,*,#333,.F.);
#427=ORIENTED_EDGE('',*,*,#322,.F.);
#428=ORIENTED_EDGE('',*,*,#333,.T.);
#429=ORIENTED_EDGE('',*,*,#309,.F.);
#430=ORIENTED_EDGE('',*,*,#334,.F.);
#431=ORIENTED_EDGE('',*,*,#323,.F.);
#432=ORIENTED_EDGE('',*,*,#334,.T.);
#433=ORIENTED_EDGE('',*,*,#308,.F.);
#434=ORIENTED_EDGE('',*,*,#300,.F.);
#435=ORIENTED_EDGE('',*,*,#328,.F.);
#436=ORIENTED_EDGE('',*,*,#303,.T.);
#437=ORIENTED_EDGE('',*,*,#319,.F.);
#438=ORIENTED_EDGE('',*,*,#335,.F.);
#439=ORIENTED_EDGE('',*,*,#329,.F.);
#440=ORIENTED_EDGE('',*,*,#335,.T.);
#441=ORIENTED_EDGE('',*,*,#318,.F.);
#442=ORIENTED_EDGE('',*,*,#336,.F.);
#443=ORIENTED_EDGE('',*,*,#330,.F.);
#444=ORIENTED_EDGE('',*,*,#336,.T.);
#445=ORIENTED_EDGE('',*,*,#317,.F.);
#446=ORIENTED_EDGE('',*,*,#337,.F.);
#447=ORIENTED_EDGE('',*,*,#331,.F.);
#448=ORIENTED_EDGE('',*,*,#337,.T.);
#449=ORIENTED_EDGE('',*,*,#316,.F.);
#450=ORIENTED_EDGE('',*,*,#305,.F.);
#451=ORIENTED_EDGE('',*,*,#338,.F.);
#452=ORIENTED_EDGE('',*,*,#288,.T.);
#453=ORIENTED_EDGE('',*,*,#339,.F.);
#454=ORIENTED_EDGE('',*,*,#340,.F.);
#455=ORIENTED_EDGE('',*,*,#341,.T.);
#456=ORIENTED_EDGE('',*,*,#340,.T.);
#457=ORIENTED_EDGE('',*,*,#342,.F.);
#458=ORIENTED_EDGE('',*,*,#343,.F.);
#459=ORIENTED_EDGE('',*,*,#344,.F.);
#460=ORIENTED_EDGE('',*,*,#343,.T.);
#461=ORIENTED_EDGE('',*,*,#345,.F.);
#462=ORIENTED_EDGE('',*,*,#292,.F.);
#463=ORIENTED_EDGE('',*,*,#324,.F.);
#464=ORIENTED_EDGE('',*,*,#294,.T.);
#465=ORIENTED_EDGE('',*,*,#315,.F.);
#466=ORIENTED_EDGE('',*,*,#346,.F.);
#467=ORIENTED_EDGE('',*,*,#325,.T.);
#468=ORIENTED_EDGE('',*,*,#346,.T.);
#469=ORIENTED_EDGE('',*,*,#314,.F.);
#470=ORIENTED_EDGE('',*,*,#347,.F.);
#471=ORIENTED_EDGE('',*,*,#326,.T.);
#472=ORIENTED_EDGE('',*,*,#347,.T.);
#473=ORIENTED_EDGE('',*,*,#313,.F.);
#474=ORIENTED_EDGE('',*,*,#348,.F.);
#475=ORIENTED_EDGE('',*,*,#327,.F.);
#476=ORIENTED_EDGE('',*,*,#348,.T.);
#477=ORIENTED_EDGE('',*,*,#312,.F.);
#478=ORIENTED_EDGE('',*,*,#296,.F.);
#479=ORIENTED_EDGE('',*,*,#287,.T.);
#480=ORIENTED_EDGE('',*,*,#293,.T.);
#481=ORIENTED_EDGE('',*,*,#345,.T.);
#482=ORIENTED_EDGE('',*,*,#342,.T.);
#483=ORIENTED_EDGE('',*,*,#339,.T.);
#484=ORIENTED_EDGE('',*,*,#291,.T.);
#485=ORIENTED_EDGE('',*,*,#289,.T.);
#486=ORIENTED_EDGE('',*,*,#338,.T.);
#487=ORIENTED_EDGE('',*,*,#341,.F.);
#488=ORIENTED_EDGE('',*,*,#344,.T.);
#489=CYLINDRICAL_SURFACE('',#535,0.125);
#490=CYLINDRICAL_SURFACE('',#543,1.075);
#491=ADVANCED_FACE('',(#47),#489,.F.);
#492=ADVANCED_FACE('',(#48),#21,.T.);
#493=ADVANCED_FACE('',(#49),#19,.T.);
#494=ADVANCED_FACE('',(#50,#15,#16,#17),#490,.T.);
#495=ADVANCED_FACE('',(#51),#22,.F.);
#496=ADVANCED_FACE('',(#52),#20,.T.);
#497=ADVANCED_FACE('',(#53,#18),#23,.T.);
#498=ADVANCED_FACE('',(#54),#24,.T.);
#499=ADVANCED_FACE('',(#55),#25,.T.);
#500=ADVANCED_FACE('',(#56),#26,.T.);
#501=ADVANCED_FACE('',(#57),#27,.F.);
#502=ADVANCED_FACE('',(#58),#28,.F.);
#503=ADVANCED_FACE('',(#59),#29,.F.);
#504=ADVANCED_FACE('',(#60),#30,.T.);
#505=ADVANCED_FACE('',(#61),#31,.T.);
#506=ADVANCED_FACE('',(#62),#32,.T.);
#507=ADVANCED_FACE('',(#63),#33,.T.);
#508=ADVANCED_FACE('',(#64),#34,.T.);
#509=ADVANCED_FACE('',(#65),#35,.T.);
#510=ADVANCED_FACE('',(#66),#36,.T.);
#511=ADVANCED_FACE('',(#67),#37,.T.);
#512=ADVANCED_FACE('',(#68),#38,.T.);
#513=ADVANCED_FACE('',(#69),#39,.T.);
#514=ADVANCED_FACE('',(#70),#40,.T.);
#515=ADVANCED_FACE('',(#71),#41,.T.);
#516=ADVANCED_FACE('',(#72),#42,.T.);
#517=ADVANCED_FACE('',(#73),#43,.T.);
#518=ADVANCED_FACE('',(#74),#44,.T.);
#519=ADVANCED_FACE('',(#75),#45,.T.);
#520=ADVANCED_FACE('',(#76),#46,.F.);
#521=CLOSED_SHELL('',(#491,#492,#493,#494,#495,#496,#497,#498,#499,#500,
#501,#502,#503,#504,#505,#506,#507,#508,#509,#510,#511,#512,#513,#514,#515,
#516,#517,#518,#519,#520));
#522=DERIVED_UNIT_ELEMENT(#524,1.);
#523=DERIVED_UNIT_ELEMENT(#885,-3.);
#524=(
MASS_UNIT()
NAMED_UNIT(*)
SI_UNIT(.KILO.,.GRAM.)
);
#525=DERIVED_UNIT((#522,#523));
#526=MEASURE_REPRESENTATION_ITEM('density measure',
POSITIVE_RATIO_MEASURE(7850.),#525);
#527=PROPERTY_DEFINITION_REPRESENTATION(#532,#529);
#528=PROPERTY_DEFINITION_REPRESENTATION(#533,#530);
#529=REPRESENTATION('material name',(#531),#882);
#530=REPRESENTATION('density',(#526),#882);
#531=DESCRIPTIVE_REPRESENTATION_ITEM('Steel','Steel');
#532=PROPERTY_DEFINITION('material property','material name',#892);
#533=PROPERTY_DEFINITION('material property','density of part',#892);
#534=AXIS2_PLACEMENT_3D('',#733,#583,#584);
#535=AXIS2_PLACEMENT_3D('',#734,#585,#586);
#536=AXIS2_PLACEMENT_3D('',#736,#587,#588);
#537=AXIS2_PLACEMENT_3D('',#739,#590,#591);
#538=AXIS2_PLACEMENT_3D('',#740,#592,#593);
#539=AXIS2_PLACEMENT_3D('',#741,#594,#595);
#540=AXIS2_PLACEMENT_3D('',#743,#596,#597);
#541=AXIS2_PLACEMENT_3D('',#745,#598,#599);
#542=AXIS2_PLACEMENT_3D('',#746,#600,#601);
#543=AXIS2_PLACEMENT_3D('',#747,#602,#603);
#544=AXIS2_PLACEMENT_3D('',#749,#604,#605);
#545=AXIS2_PLACEMENT_3D('',#753,#607,#608);
#546=AXIS2_PLACEMENT_3D('',#757,#610,#611);
#547=AXIS2_PLACEMENT_3D('',#760,#613,#614);
#548=AXIS2_PLACEMENT_3D('',#763,#616,#617);
#549=AXIS2_PLACEMENT_3D('',#768,#619,#620);
#550=AXIS2_PLACEMENT_3D('',#771,#622,#623);
#551=AXIS2_PLACEMENT_3D('',#776,#625,#626);
#552=AXIS2_PLACEMENT_3D('',#779,#628,#629);
#553=AXIS2_PLACEMENT_3D('',#782,#630,#631);
#554=AXIS2_PLACEMENT_3D('',#786,#633,#634);
#555=AXIS2_PLACEMENT_3D('',#788,#636,#637);
#556=AXIS2_PLACEMENT_3D('',#789,#638,#639);
#557=AXIS2_PLACEMENT_3D('',#791,#640,#641);
#558=AXIS2_PLACEMENT_3D('',#792,#642,#643);
#559=AXIS2_PLACEMENT_3D('',#793,#644,#645);
#560=AXIS2_PLACEMENT_3D('',#794,#646,#647);
#561=AXIS2_PLACEMENT_3D('',#802,#652,#653);
#562=AXIS2_PLACEMENT_3D('',#810,#658,#659);
#563=AXIS2_PLACEMENT_3D('',#818,#664,#665);
#564=AXIS2_PLACEMENT_3D('',#826,#670,#671);
#565=AXIS2_PLACEMENT_3D('',#834,#676,#677);
#566=AXIS2_PLACEMENT_3D('',#842,#682,#683);
#567=AXIS2_PLACEMENT_3D('',#844,#685,#686);
#568=AXIS2_PLACEMENT_3D('',#846,#688,#689);
#569=AXIS2_PLACEMENT_3D('',#848,#691,#692);
#570=AXIS2_PLACEMENT_3D('',#849,#693,#694);
#571=AXIS2_PLACEMENT_3D('',#851,#696,#697);
#572=AXIS2_PLACEMENT_3D('',#853,#699,#700);
#573=AXIS2_PLACEMENT_3D('',#855,#702,#703);
#574=AXIS2_PLACEMENT_3D('',#856,#704,#705);
#575=AXIS2_PLACEMENT_3D('',#862,#709,#710);
#576=AXIS2_PLACEMENT_3D('',#868,#714,#715);
#577=AXIS2_PLACEMENT_3D('',#871,#718,#719);
#578=AXIS2_PLACEMENT_3D('',#873,#721,#722);
#579=AXIS2_PLACEMENT_3D('',#875,#724,#725);
#580=AXIS2_PLACEMENT_3D('',#877,#727,#728);
#581=AXIS2_PLACEMENT_3D('',#878,#729,#730);
#582=AXIS2_PLACEMENT_3D('',#879,#731,#732);
#583=DIRECTION('axis',(0.,0.,1.));
#584=DIRECTION('refdir',(1.,0.,0.));
#585=DIRECTION('center_axis',(0.,0.,-1.));
#586=DIRECTION('ref_axis',(-1.,0.,0.));
#587=DIRECTION('center_axis',(0.,0.,-1.));
#588=DIRECTION('ref_axis',(-1.,0.,0.));
#589=DIRECTION('',(0.,0.,-1.));
#590=DIRECTION('center_axis',(0.,0.,-1.));
#591=DIRECTION('ref_axis',(-1.,0.,0.));
#592=DIRECTION('center_axis',(0.,0.,1.));
#593=DIRECTION('ref_axis',(-1.,0.,0.));
#594=DIRECTION('center_axis',(0.,0.,1.));
#595=DIRECTION('ref_axis',(1.,0.,0.));
#596=DIRECTION('center_axis',(0.,0.,-1.));
#597=DIRECTION('ref_axis',(1.,0.,0.));
#598=DIRECTION('center_axis',(1.22464679914735E-16,-1.,0.));
#599=DIRECTION('ref_axis',(-1.,-1.22464679914735E-16,0.));
#600=DIRECTION('center_axis',(0.,0.,1.));
#601=DIRECTION('ref_axis',(1.,0.,0.));
#602=DIRECTION('center_axis',(0.,0.,1.));
#603=DIRECTION('ref_axis',(1.,0.,0.));
#604=DIRECTION('center_axis',(0.,0.,1.));
#605=DIRECTION('ref_axis',(0.237209302325582,-0.971458566738804,0.));
#606=DIRECTION('',(0.,0.,-1.));
#607=DIRECTION('center_axis',(0.,0.,-1.));
#608=DIRECTION('ref_axis',(-1.,0.,0.));
#609=DIRECTION('',(0.,0.,1.));
#610=DIRECTION('center_axis',(0.,0.,1.));
#611=DIRECTION('ref_axis',(1.,0.,0.));
#612=DIRECTION('',(0.,0.,-1.));
#613=DIRECTION('center_axis',(0.,0.,1.));
#614=DIRECTION('ref_axis',(1.,0.,0.));
#615=DIRECTION('',(0.,0.,1.));
#616=DIRECTION('center_axis',(0.,0.,-1.));
#617=DIRECTION('ref_axis',(-1.,0.,0.));
#618=DIRECTION('',(0.,0.,1.));
#619=DIRECTION('center_axis',(0.,0.,1.));
#620=DIRECTION('ref_axis',(1.,0.,0.));
#621=DIRECTION('',(0.,0.,1.));
#622=DIRECTION('center_axis',(0.,0.,-1.));
#623=DIRECTION('ref_axis',(-1.,0.,0.));
#624=DIRECTION('',(0.,0.,1.));
#625=DIRECTION('center_axis',(0.,0.,1.));
#626=DIRECTION('ref_axis',(1.,0.,0.));
#627=DIRECTION('',(0.,0.,1.));
#628=DIRECTION('center_axis',(0.,0.,-1.));
#629=DIRECTION('ref_axis',(-1.,0.,0.));
#630=DIRECTION('center_axis',(0.,0.,-1.));
#631=DIRECTION('ref_axis',(-1.,0.,0.));
#632=DIRECTION('',(0.,0.,1.));
#633=DIRECTION('center_axis',(0.,0.,1.));
#634=DIRECTION('ref_axis',(1.,0.,0.));
#635=DIRECTION('',(0.,0.,1.));
#636=DIRECTION('center_axis',(0.,0.,1.));
#637=DIRECTION('ref_axis',(1.,0.,0.));
#638=DIRECTION('center_axis',(0.,0.,1.));
#639=DIRECTION('ref_axis',(1.,0.,0.));
#640=DIRECTION('center_axis',(0.,0.,-1.));
#641=DIRECTION('ref_axis',(0.237209302325581,-0.971458566738804,0.));
#642=DIRECTION('center_axis',(1.22464679914735E-16,-1.,0.));
#643=DIRECTION('ref_axis',(-1.,-1.22464679914735E-16,0.));
#644=DIRECTION('center_axis',(0.,0.,1.));
#645=DIRECTION('ref_axis',(-1.,0.,0.));
#646=DIRECTION('center_axis',(0.,0.,1.));
#647=DIRECTION('ref_axis',(-1.,0.,0.));
#648=DIRECTION('',(1.,-1.45501803466582E-16,0.));
#649=DIRECTION('',(0.707106781186547,0.707106781186548,0.));
#650=DIRECTION('',(-0.707106781186547,0.707106781186548,0.));
#651=DIRECTION('',(-1.,3.63754508666455E-16,0.));
#652=DIRECTION('center_axis',(0.,0.,1.));
#653=DIRECTION('ref_axis',(-1.,0.,0.));
#654=DIRECTION('',(2.18252705199873E-16,1.,0.));
#655=DIRECTION('',(-0.707106781186547,0.707106781186548,0.));
#656=DIRECTION('',(-0.707106781186548,-0.707106781186547,0.));
#657=DIRECTION('',(-4.85006011555273E-16,-1.,0.));
#658=DIRECTION('center_axis',(0.,0.,1.));
#659=DIRECTION('ref_axis',(-1.,0.,0.));
#660=DIRECTION('',(-1.45501803466582E-16,-1.,0.));
#661=DIRECTION('',(0.707106781186547,-0.707106781186547,0.));
#662=DIRECTION('',(0.707106781186548,0.707106781186547,0.));
#663=DIRECTION('',(2.667533063554E-16,1.,0.));
#664=DIRECTION('center_axis',(0.,0.,1.));
#665=DIRECTION('ref_axis',(-1.,0.,0.));
#666=DIRECTION('',(1.,-3.63754508666455E-16,0.));
#667=DIRECTION('',(0.707106781186547,-0.707106781186548,0.));
#668=DIRECTION('',(-0.707106781186547,-0.707106781186548,0.));
#669=DIRECTION('',(-1.,1.45501803466582E-16,0.));
#670=DIRECTION('center_axis',(0.,0.,1.));
#671=DIRECTION('ref_axis',(-1.,0.,0.));
#672=DIRECTION('',(4.85006011555273E-16,1.,0.));
#673=DIRECTION('',(-0.707106781186548,-0.707106781186547,0.));
#674=DIRECTION('',(-0.707106781186547,0.707106781186548,0.));
#675=DIRECTION('',(-2.18252705199873E-16,-1.,0.));
#676=DIRECTION('center_axis',(0.,0.,1.));
#677=DIRECTION('ref_axis',(-1.,0.,0.));
#678=DIRECTION('',(-2.667533063554E-16,-1.,0.));
#679=DIRECTION('',(-0.707106781186548,-0.707106781186547,0.));
#680=DIRECTION('',(-0.707106781186547,0.707106781186547,0.));
#681=DIRECTION('',(1.45501803466582E-16,1.,0.));
#682=DIRECTION('center_axis',(3.63754508666455E-16,1.,0.));
#683=DIRECTION('ref_axis',(-1.,3.63754508666455E-16,0.));
#684=DIRECTION('',(0.,0.,1.));
#685=DIRECTION('center_axis',(0.707106781186548,0.707106781186547,0.));
#686=DIRECTION('ref_axis',(-0.707106781186547,0.707106781186548,0.));
#687=DIRECTION('',(0.,0.,1.));
#688=DIRECTION('center_axis',(0.707106781186548,-0.707106781186547,0.));
#689=DIRECTION('ref_axis',(0.707106781186547,0.707106781186548,0.));
#690=DIRECTION('',(0.,0.,1.));
#691=DIRECTION('center_axis',(-1.45501803466582E-16,-1.,0.));
#692=DIRECTION('ref_axis',(1.,-1.45501803466582E-16,0.));
#693=DIRECTION('center_axis',(1.,-2.667533063554E-16,0.));
#694=DIRECTION('ref_axis',(2.667533063554E-16,1.,0.));
#695=DIRECTION('',(0.,0.,1.));
#696=DIRECTION('center_axis',(0.707106781186547,-0.707106781186548,0.));
#697=DIRECTION('ref_axis',(0.707106781186548,0.707106781186547,0.));
#698=DIRECTION('',(0.,0.,1.));
#699=DIRECTION('center_axis',(-0.707106781186548,-0.707106781186548,0.));
#700=DIRECTION('ref_axis',(0.707106781186548,-0.707106781186548,0.));
#701=DIRECTION('',(0.,0.,1.));
#702=DIRECTION('center_axis',(-1.,1.45501803466582E-16,0.));
#703=DIRECTION('ref_axis',(-1.45501803466582E-16,-1.,0.));
#704=DIRECTION('center_axis',(-1.02909293332628E-16,-1.,0.));
#705=DIRECTION('ref_axis',(1.,-1.02909293332628E-16,0.));
#706=DIRECTION('',(-1.,1.02909293332628E-16,0.));
#707=DIRECTION('',(1.,-1.02909293332628E-16,0.));
#708=DIRECTION('',(0.,0.,1.));
#709=DIRECTION('center_axis',(-0.894427190999916,0.447213595499958,0.));
#710=DIRECTION('ref_axis',(-0.447213595499958,-0.894427190999916,0.));
#711=DIRECTION('',(-0.447213595499958,-0.894427190999916,0.));
#712=DIRECTION('',(-0.447213595499958,-0.894427190999916,0.));
#713=DIRECTION('',(0.,0.,1.));
#714=DIRECTION('center_axis',(1.45501803466582E-16,1.,0.));
#715=DIRECTION('ref_axis',(-1.,1.45501803466582E-16,0.));
#716=DIRECTION('',(1.,-1.45501803466582E-16,0.));
#717=DIRECTION('',(-1.,1.45501803466582E-16,0.));
#718=DIRECTION('center_axis',(-1.,4.85006011555273E-16,0.));
#719=DIRECTION('ref_axis',(-4.85006011555273E-16,-1.,0.));
#720=DIRECTION('',(0.,0.,1.));
#721=DIRECTION('center_axis',(-0.707106781186547,0.707106781186548,0.));
#722=DIRECTION('ref_axis',(-0.707106781186548,-0.707106781186547,0.));
#723=DIRECTION('',(0.,0.,1.));
#724=DIRECTION('center_axis',(0.707106781186548,0.707106781186547,0.));
#725=DIRECTION('ref_axis',(-0.707106781186547,0.707106781186548,0.));
#726=DIRECTION('',(0.,0.,1.));
#727=DIRECTION('center_axis',(1.,-2.18252705199873E-16,0.));
#728=DIRECTION('ref_axis',(2.18252705199873E-16,1.,0.));
#729=DIRECTION('center_axis',(0.,0.,1.));
#730=DIRECTION('ref_axis',(-1.,0.,0.));
#731=DIRECTION('center_axis',(0.,0.,1.));
#732=DIRECTION('ref_axis',(-1.,0.,0.));
#733=CARTESIAN_POINT('',(0.,0.,0.));
#734=CARTESIAN_POINT('Origin',(-0.5375,0.,1.52));
#735=CARTESIAN_POINT('',(-0.4125,1.53080849893419E-17,1.52));
#736=CARTESIAN_POINT('Origin',(-0.5375,0.,1.52));
#737=CARTESIAN_POINT('',(-0.4125,1.53080849893419E-17,1.42));
#738=CARTESIAN_POINT('',(-0.4125,-1.53080849893419E-17,1.52));
#739=CARTESIAN_POINT('Origin',(-0.5375,0.,1.42));
#740=CARTESIAN_POINT('Origin',(-0.5375,0.,1.42));
#741=CARTESIAN_POINT('Origin',(0.,0.,0.25));
#742=CARTESIAN_POINT('',(-1.075,1.3164953090834E-16,0.25));
#743=CARTESIAN_POINT('Origin',(0.,0.,0.25));
#744=CARTESIAN_POINT('',(-0.825,-1.01033360929657E-16,0.));
#745=CARTESIAN_POINT('Origin',(-0.825,-1.01033360929657E-16,0.25));
#746=CARTESIAN_POINT('Origin',(0.,0.,0.));
#747=CARTESIAN_POINT('Origin',(0.,0.,0.));
#748=CARTESIAN_POINT('',(-1.075,-1.3164953090834E-16,1.27));
#749=CARTESIAN_POINT('Origin',(0.,0.,1.27));
#750=CARTESIAN_POINT('',(-1.075,-1.3164953090834E-16,0.71));
#751=CARTESIAN_POINT('',(-1.075,-1.3164953090834E-16,0.));
#752=CARTESIAN_POINT('',(-1.04431795924421,-0.255,0.71));
#753=CARTESIAN_POINT('Origin',(0.,0.,0.71));
#754=CARTESIAN_POINT('',(-1.04431795924421,-0.255,0.51));
#755=CARTESIAN_POINT('',(-1.04431795924421,-0.255,0.51));
#756=CARTESIAN_POINT('',(-1.075,-1.3164953090834E-16,0.51));
#757=CARTESIAN_POINT('Origin',(0.,0.,0.51));
#758=CARTESIAN_POINT('',(-1.075,-1.3164953090834E-16,0.));
#759=CARTESIAN_POINT('',(-1.04431795924421,0.255,0.51));
#760=CARTESIAN_POINT('Origin',(0.,0.,0.51));
#761=CARTESIAN_POINT('',(-1.04431795924421,0.255,0.71));
#762=CARTESIAN_POINT('',(-1.04431795924421,0.255,0.51));
#763=CARTESIAN_POINT('Origin',(0.,0.,0.71));
#764=CARTESIAN_POINT('',(-0.255,1.04431795924421,0.51));
#765=CARTESIAN_POINT('',(-0.255,1.04431795924421,0.71));
#766=CARTESIAN_POINT('',(-0.255,1.04431795924421,0.51));
#767=CARTESIAN_POINT('',(0.255,1.04431795924421,0.51));
#768=CARTESIAN_POINT('Origin',(0.,0.,0.51));
#769=CARTESIAN_POINT('',(0.255,1.04431795924421,0.71));
#770=CARTESIAN_POINT('',(0.255,1.04431795924421,0.51));
#771=CARTESIAN_POINT('Origin',(0.,0.,0.71));
#772=CARTESIAN_POINT('',(1.04431795924421,0.255,0.51));
#773=CARTESIAN_POINT('',(1.04431795924421,0.255,0.71));
#774=CARTESIAN_POINT('',(1.04431795924421,0.255,0.51));
#775=CARTESIAN_POINT('',(1.04431795924421,-0.255,0.51));
#776=CARTESIAN_POINT('Origin',(0.,0.,0.51));
#777=CARTESIAN_POINT('',(1.04431795924421,-0.255,0.71));
#778=CARTESIAN_POINT('',(1.04431795924421,-0.255,0.51));
#779=CARTESIAN_POINT('Origin',(0.,0.,0.71));
#780=CARTESIAN_POINT('',(0.255,-1.04431795924421,0.71));
#781=CARTESIAN_POINT('',(-0.255,-1.04431795924421,0.71));
#782=CARTESIAN_POINT('Origin',(0.,0.,0.71));
#783=CARTESIAN_POINT('',(0.255,-1.04431795924421,0.51));
#784=CARTESIAN_POINT('',(0.255,-1.04431795924421,0.51));
#785=CARTESIAN_POINT('',(-0.255,-1.04431795924421,0.51));
#786=CARTESIAN_POINT('Origin',(0.,0.,0.51));
#787=CARTESIAN_POINT('',(-0.255,-1.04431795924421,0.51));
#788=CARTESIAN_POINT('Origin',(0.,0.,0.));
#789=CARTESIAN_POINT('Origin',(0.,0.,1.27));
#790=CARTESIAN_POINT('',(-0.825,-1.01033360929657E-16,1.52));
#791=CARTESIAN_POINT('Origin',(0.,0.,1.52));
#792=CARTESIAN_POINT('Origin',(-0.825,-1.01033360929657E-16,1.27));
#793=CARTESIAN_POINT('Origin',(0.,0.,1.52));
#794=CARTESIAN_POINT('Origin',(0.,0.,0.71));
#795=CARTESIAN_POINT('',(2.475,-0.255,0.71));
#796=CARTESIAN_POINT('',(2.475,-0.255,0.71));
#797=CARTESIAN_POINT('',(2.73,-3.81639164714898E-16,0.71));
#798=CARTESIAN_POINT('',(2.73,-3.81639164714898E-16,0.71));
#799=CARTESIAN_POINT('',(2.475,0.255,0.71));
#800=CARTESIAN_POINT('',(2.475,0.255,0.71));
#801=CARTESIAN_POINT('',(1.04431795924421,0.255,0.71));
#802=CARTESIAN_POINT('Origin',(0.,0.,0.71));
#803=CARTESIAN_POINT('',(0.255000000000001,2.475,0.71));
#804=CARTESIAN_POINT('',(0.255000000000001,2.475,0.71));
#805=CARTESIAN_POINT('',(5.55111512312578E-16,2.73,0.71));
#806=CARTESIAN_POINT('',(0.255000000000001,2.475,0.71));
#807=CARTESIAN_POINT('',(-0.254999999999999,2.475,0.71));
#808=CARTESIAN_POINT('',(6.59194920871187E-16,2.73,0.71));
#809=CARTESIAN_POINT('',(-0.255,1.04431795924421,0.71));
#810=CARTESIAN_POINT('Origin',(0.,0.,0.71));
#811=CARTESIAN_POINT('',(-0.255000000000001,-2.475,0.71));
#812=CARTESIAN_POINT('',(-0.255,-2.475,0.71));
#813=CARTESIAN_POINT('',(-5.55111512312578E-16,-2.73,0.71));
#814=CARTESIAN_POINT('',(-5.20417042793042E-16,-2.73,0.71));
#815=CARTESIAN_POINT('',(0.254999999999999,-2.475,0.71));
#816=CARTESIAN_POINT('',(0.254999999999999,-2.475,0.71));
#817=CARTESIAN_POINT('',(0.255,-1.04431795924421,0.71));
#818=CARTESIAN_POINT('Origin',(0.,0.,0.51));
#819=CARTESIAN_POINT('',(2.475,0.255,0.51));
#820=CARTESIAN_POINT('',(1.04431795924421,0.255,0.51));
#821=CARTESIAN_POINT('',(2.73,-3.81639164714898E-16,0.51));
#822=CARTESIAN_POINT('',(2.475,0.255,0.51));
#823=CARTESIAN_POINT('',(2.475,-0.255,0.51));
#824=CARTESIAN_POINT('',(2.73,-3.81639164714898E-16,0.51));
#825=CARTESIAN_POINT('',(2.475,-0.255,0.51));
#826=CARTESIAN_POINT('Origin',(0.,0.,0.51));
#827=CARTESIAN_POINT('',(-0.254999999999999,2.475,0.51));
#828=CARTESIAN_POINT('',(-0.255,1.04431795924421,0.51));
#829=CARTESIAN_POINT('',(5.89805981832114E-16,2.73,0.51));
#830=CARTESIAN_POINT('',(6.59194920871187E-16,2.73,0.51));
#831=CARTESIAN_POINT('',(0.255000000000001,2.475,0.51));
#832=CARTESIAN_POINT('',(0.255000000000001,2.475,0.51));
#833=CARTESIAN_POINT('',(0.255000000000001,2.475,0.51));
#834=CARTESIAN_POINT('Origin',(0.,0.,0.51));
#835=CARTESIAN_POINT('',(0.254999999999999,-2.475,0.51));
#836=CARTESIAN_POINT('',(0.255,-1.04431795924421,0.51));
#837=CARTESIAN_POINT('',(-5.20417042793042E-16,-2.73,0.51));
#838=CARTESIAN_POINT('',(0.254999999999999,-2.475,0.51));
#839=CARTESIAN_POINT('',(-0.255,-2.475,0.51));
#840=CARTESIAN_POINT('',(-5.20417042793042E-16,-2.73,0.51));
#841=CARTESIAN_POINT('',(-0.255,-2.475,0.51));
#842=CARTESIAN_POINT('Origin',(2.475,0.255,0.51));
#843=CARTESIAN_POINT('',(2.475,0.255,0.51));
#844=CARTESIAN_POINT('Origin',(2.73,-3.81639164714898E-16,0.51));
#845=CARTESIAN_POINT('',(2.73,-3.81639164714898E-16,0.51));
#846=CARTESIAN_POINT('Origin',(2.475,-0.255,0.51));
#847=CARTESIAN_POINT('',(2.475,-0.255,0.51));
#848=CARTESIAN_POINT('Origin',(1.04431795924421,-0.255,0.51));
#849=CARTESIAN_POINT('Origin',(0.254999999999999,-2.475,0.51));
#850=CARTESIAN_POINT('',(0.254999999999999,-2.475,0.51));
#851=CARTESIAN_POINT('Origin',(-6.59194920871187E-16,-2.73,0.51));
#852=CARTESIAN_POINT('',(-5.20417042793042E-16,-2.73,0.51));
#853=CARTESIAN_POINT('Origin',(-0.255,-2.475,0.51));
#854=CARTESIAN_POINT('',(-0.255,-2.475,0.51));
#855=CARTESIAN_POINT('Origin',(-0.255,-1.04431795924421,0.51));
#856=CARTESIAN_POINT('Origin',(-2.73,-0.255,0.51));
#857=CARTESIAN_POINT('',(-2.73,-0.255,0.51));
#858=CARTESIAN_POINT('',(-1.04431795924421,-0.255,0.51));
#859=CARTESIAN_POINT('',(-2.73,-0.255,0.71));
#860=CARTESIAN_POINT('',(-1.04431795924421,-0.255,0.71));
#861=CARTESIAN_POINT('',(-2.73,-0.255,0.51));
#862=CARTESIAN_POINT('Origin',(-2.475,0.255,0.51));
#863=CARTESIAN_POINT('',(-2.475,0.255,0.51));
#864=CARTESIAN_POINT('',(-2.475,0.255,0.51));
#865=CARTESIAN_POINT('',(-2.475,0.255,0.71));
#866=CARTESIAN_POINT('',(-2.475,0.255,0.71));
#867=CARTESIAN_POINT('',(-2.475,0.255,0.51));
#868=CARTESIAN_POINT('Origin',(-1.04431795924421,0.255,0.51));
#869=CARTESIAN_POINT('',(-2.475,0.255,0.51));
#870=CARTESIAN_POINT('',(-2.475,0.255,0.71));
#871=CARTESIAN_POINT('Origin',(-0.254999999999999,2.475,0.51));
#872=CARTESIAN_POINT('',(-0.254999999999999,2.475,0.51));
#873=CARTESIAN_POINT('Origin',(6.24500451351651E-16,2.73,0.51));
#874=CARTESIAN_POINT('',(5.89805981832114E-16,2.73,0.51));
#875=CARTESIAN_POINT('Origin',(0.255000000000001,2.475,0.51));
#876=CARTESIAN_POINT('',(0.255000000000001,2.475,0.51));
#877=CARTESIAN_POINT('Origin',(0.255,1.04431795924421,0.51));
#878=CARTESIAN_POINT('Origin',(0.,0.,0.71));
#879=CARTESIAN_POINT('Origin',(0.,0.,0.51));
#880=UNCERTAINTY_MEASURE_WITH_UNIT(LENGTH_MEASURE(0.01),#884,
'DISTANCE_ACCURACY_VALUE',
'Maximum model space distance between geometric entities at asserted c
onnectivities');
#881=UNCERTAINTY_MEASURE_WITH_UNIT(LENGTH_MEASURE(0.01),#884,
'DISTANCE_ACCURACY_VALUE',
'Maximum model space distance between geometric entities at asserted c
onnectivities');
#882=(
GEOMETRIC_REPRESENTATION_CONTEXT(3)
GLOBAL_UNCERTAINTY_ASSIGNED_CONTEXT((#880))
GLOBAL_UNIT_ASSIGNED_CONTEXT((#884,#886,#887))
REPRESENTATION_CONTEXT('','3D')
);
#883=(
GEOMETRIC_REPRESENTATION_CONTEXT(3)
GLOBAL_UNCERTAINTY_ASSIGNED_CONTEXT((#881))
GLOBAL_UNIT_ASSIGNED_CONTEXT((#884,#886,#887))
REPRESENTATION_CONTEXT('','3D')
);
#884=(
LENGTH_UNIT()
NAMED_UNIT(*)
SI_UNIT(.MILLI.,.METRE.)
);
#885=(
LENGTH_UNIT()
NAMED_UNIT(*)
SI_UNIT($,.METRE.)
);
#886=(
NAMED_UNIT(*)
PLANE_ANGLE_UNIT()
SI_UNIT($,.RADIAN.)
);
#887=(
NAMED_UNIT(*)
SI_UNIT($,.STERADIAN.)
SOLID_ANGLE_UNIT()
);
#888=SHAPE_DEFINITION_REPRESENTATION(#889,#890);
#889=PRODUCT_DEFINITION_SHAPE('',$,#892);
#890=SHAPE_REPRESENTATION('',(#534),#882);
#891=PRODUCT_DEFINITION_CONTEXT('part definition',#896,'design');
#892=PRODUCT_DEFINITION('2026-08-09-18-36-20-229','ATF-26884',#893,#891);
#893=PRODUCT_DEFINITION_FORMATION('',$,#898);
#894=PRODUCT_RELATED_PRODUCT_CATEGORY('ATF-26884','ATF-26884',(#898));
#895=APPLICATION_PROTOCOL_DEFINITION('international standard',
'automotive_design',2009,#896);
#896=APPLICATION_CONTEXT(
'Core Data for Automotive Mechanical Design Process');
#897=PRODUCT_CONTEXT('part definition',#896,'mechanical');
#898=PRODUCT('2026-08-09-18-36-20-229','ATF-26884',$,(#897));
#899=PRESENTATION_STYLE_ASSIGNMENT((#900));
#900=SURFACE_STYLE_USAGE(.BOTH.,#901);
#901=SURFACE_SIDE_STYLE('',(#902));
#902=SURFACE_STYLE_FILL_AREA(#903);
#903=FILL_AREA_STYLE('Steel - Satin',(#904));
#904=FILL_AREA_STYLE_COLOUR('Steel - Satin',#905);
#905=COLOUR_RGB('Steel - Satin',0.627450980392157,0.627450980392157,0.627450980392157);
ENDSEC;
END-ISO-10303-21;
